<?xml version="1.0" standalone="no"?>
<!DOCTYPE svg PUBLIC "-//W3C//DTD SVG 1.1//EN" "http://www.w3.org/Graphics/SVG/1.1/DTD/svg11.dtd">
<svg width="181mm" height="191mm" viewBox="-94 -87 181 191" xmlns="http://www.w3.org/2000/svg" version="1.1">
<title>OpenSCAD Model</title>
<path d="
M -93.8643,68.2596 L -93.5078,70.0497 L -92.6224,74.4961 L -92.3342,77.2907 L -92.3134,77.4925 L -92.3074,77.4975
 L -92.307,77.4978 L -91.3269,78.3027 L -78.9198,88.4919 L -78.8431,88.5549 L -73.6025,91.114 L -72.6919,91.214
 L -69.909,93.6746 L -59.89,102.533 L -59.4738,102.948 L -59.4738,102.948 L -59.4738,102.948 L -59.4728,102.948
 L -59.4048,103.016 L -59.2736,103.017 L -51.1281,103.072 L -51.1281,103.072 L -49.6705,102.354 L -49.6705,102.354
 L -49.2705,102.157 L -49.2599,102.142 L -49.2599,102.142 L -45.3673,96.7842 L -40.7201,90.3879 L -40.7201,90.3879
 L -40.6931,90.3507 L -40.6931,90.3507 L -41.3878,87.6472 L -41.9606,85.4182 L -41.9606,85.4182 L -38.9544,82.0794
 L -32.7606,75.2005 L -24.5389,69.7153 L -22.3243,68.2379 L -21.1796,69.6733 L -19.5057,70.4794 L -19.4743,70.4945
 L -17.5815,70.4945 L -17.5501,70.4794 L -15.8762,69.6733 L -14.7178,68.2207 L -14.696,68.1935 L -14.6883,68.1595
 L -14.2749,66.3481 L -14.3625,65.9641 L -6.2871,64.4386 L 0.311704,64.4386 L 13.6704,64.4386 L 18.5577,56.5369
 L 20.4467,53.4828 L 22.6484,53.4828 L 22.7119,53.4828 L 30.3946,53.4828 L 33.6672,53.4828 L 33.727,53.4828
 L 36.1388,53.4828 L 47.2758,53.4828 L 47.3486,53.4828 L 53.3342,53.4828 L 57.4423,53.4828 L 57.5114,53.4828
 L 59.4393,53.4828 L 71.5336,53.4828 L 71.6059,53.4828 L 76.766,53.4828 L 82.4392,47.9674 L 83.7209,46.7213
 L 83.7358,46.5543 L 83.8014,45.8154 L 83.706,30.8601 L 83.6948,29.1047 L 83.692,28.2116 L 83.6682,20.6
 L 83.6682,3.4 L 83.692,-4.21158 L 83.6948,-5.10473 L 83.706,-6.86014 L 83.8008,-21.7199 L 83.8288,-24.5573
 L 83.8789,-29.6441 L 83.8789,-29.6442 L 83.9591,-35.4817 L 84.5511,-35.7668 L 85.7095,-37.2194 L 85.7312,-37.2467
 L 85.739,-37.2806 L 86.1524,-39.092 L 85.739,-40.9033 L 85.7312,-40.9373 L 85.7095,-40.9645 L 84.5511,-42.4171
 L 84.0577,-42.6547 L 84.0836,-44.5398 L 84.1218,-46.6331 L 84.2078,-51.3448 L 84.4075,-59.7368 L 84.4973,-63.5076
 L 84.4976,-63.5235 L 84.4989,-63.5784 L 84.485,-64.1652 L 84.4401,-66.0532 L 79.1914,-69.8292 L 77.5598,-71.003
 L 63.8475,-71.003 L 63.8262,-71.003 L 60.1857,-71.003 L 57.6629,-71.003 L 57.6419,-71.003 L 56.9853,-71.003
 L 43.3683,-71.003 L 43.3468,-71.003 L 39.7982,-71.003 L 37.5053,-71.003 L 37.4853,-71.003 L 36.9316,-71.003
 L 23.3198,-71.003 L 20.0504,-71.003 L 19.1856,-73.4336 L 15.7808,-83.003 L 10.9462,-83.003 L 10.7748,-83.7537
 L 10.7671,-83.7876 L 10.7453,-83.8149 L 9.58694,-85.2675 L 7.91301,-86.0736 L 7.88161,-86.0887 L 5.98884,-86.0887
 L 5.95744,-86.0736 L 4.28351,-85.2675 L 3.12512,-83.8149 L 3.10339,-83.7876 L 3.09563,-83.7537 L 2.9243,-83.003
 L 2.46728,-83.003 L 2.44595,-83.003 L -0.818375,-83.003 L -1.58767,-83.5585 L -4.72356,-85.823 L -17.7358,-85.823
 L -17.7564,-85.823 L -20.9116,-85.823 L -20.9279,-85.823 L -21.1631,-85.3707 L -22.3939,-83.003 L -35.3924,-83.003
 L -37.8817,-83.003 L -40.4314,-83.003 L -40.8577,-83.003 L -41.0071,-83.003 L -41.0071,-86.8565 L -55.7871,-86.8565
 L -55.7871,-82.8405 L -56.7251,-81.7915 L -62.9317,-74.8502 L -69.9317,-67.8502 L -71.2291,-65.3574 L -72.1057,-65.7796
 L -72.1371,-65.7947 L -74.0299,-65.7947 L -74.0613,-65.7796 L -75.7352,-64.9735 L -76.8936,-63.5209 L -76.9153,-63.4937
 L -76.9231,-63.4597 L -77.3365,-61.6484 L -76.9231,-59.837 L -76.9153,-59.803 L -76.8936,-59.7758 L -75.7352,-58.3232
 L -75.0595,-57.9978 L -75.3837,-57.3748 L -76.3353,-55.5465 L -76.6582,-54.7381 L -78.0806,-51.1764 L -81.7711,-38.8951
 L -82.6087,-36.1075 L -82.8529,-34.9746 L -83.7058,-31.0184 L -84.2759,-26.9304 L -86.0497,-14.2113 L -86.1421,-12.863
 L -86.424,-8.75 L -86.424,8.75 L -86.1421,12.863 L -86.0497,14.2113 L -84.2759,26.9304 L -83.7058,31.0184
 L -80.3319,37.4723 L -79.5393,38.9885 L -80.0841,39.4456 L -81.2411,39.4456 L -81.2725,39.4607 L -82.9464,40.2668
 L -84.1048,41.7194 L -84.1265,41.7467 L -84.1343,41.7806 L -84.4345,43.096 L -87.7631,45.889 L -88.2436,46.475
 L -89.019,47.4205 L -86.624,53.3917 L -85.1396,57.0925 L -85.1396,57.0925 L -92.0642,65.9556 L -92.0644,65.9558
 L -93.8241,68.2081 z
M -90.8241,68.2636 L -90.6239,67.9113 L -82.1152,57.0206 L -82.0895,56.9878 L -82.0895,56.9878 L -82.0648,56.9561
 L -82.0648,56.9561 L -84.1253,52.2446 L -86.1103,47.7061 L -83.8378,45.7993 L -82.9464,46.9171 L -81.2725,47.7232
 L -81.2411,47.7384 L -79.3483,47.7384 L -79.3169,47.7232 L -77.643,46.9171 L -76.4846,45.4645 L -76.4628,45.4373
 L -76.4551,45.4033 L -76.0417,43.592 L -76.4551,41.7806 L -76.4628,41.7467 L -76.4846,41.7194 L -77.4835,40.4668
 L -77.0911,39.9884 L -76.2288,38.937 L -77.34,37.2799 L -81.6058,30.9184 L -83.4654,17.5846 L -83.9497,14.1113
 L -84.0348,12.8694 L -84.324,8.65 L -84.324,-8.65 L -84.0348,-12.8694 L -83.9497,-14.1113 L -83.4654,-17.5846
 L -81.6058,-30.9184 L -81.3872,-31.9327 L -80.5087,-36.0075 L -79.7216,-38.6269 L -75.9806,-51.0764 L -74.5387,-54.6869
 L -74.2353,-55.4465 L -73.1655,-57.502 L -72.1371,-57.502 L -72.1057,-57.5171 L -70.4318,-58.3232 L -69.2734,-59.7758
 L -69.2517,-59.803 L -69.2439,-59.837 L -68.8305,-61.6484 L -69.2439,-63.4597 L -69.2517,-63.4937 L -69.2734,-63.5209
 L -69.733,-64.0972 L -68.8925,-65.7119 L -67.8317,-67.7502 L -62.8317,-72.7502 L -56.1421,-78.1539 L -55.7871,-78.4407
 L -55.7871,-73.8565 L -41.0071,-73.8565 L -41.0071,-79.0432 L -40.281,-79.0432 L -37.7801,-79.0432 L -37.378,-79.0432
 L -24.0654,-79.0432 L -21.8788,-79.0432 L -21.8647,-79.0432 L -20.6942,-81.4169 L -20.4742,-81.8632 L -7.15888,-81.8632
 L -4.45606,-81.8632 L -1.37419,-79.5885 L -0.635422,-79.0432 L 3.94379,-79.0432 L 4.28351,-78.6172 L 5.95744,-77.8111
 L 5.98884,-77.7959 L 7.88161,-77.7959 L 7.91301,-77.8111 L 9.58694,-78.6172 L 9.92666,-79.0432 L 13.0336,-79.0432
 L 15.9638,-79.0432 L 16.7242,-76.8621 L 20.1474,-67.0432 L 34.1057,-67.0432 L 37.1873,-67.0432 L 39.4299,-67.0432
 L 39.4487,-67.0432 L 39.9771,-67.0432 L 53.7939,-67.0432 L 57.1606,-67.0432 L 59.6359,-67.0432 L 59.656,-67.0432
 L 60.2854,-67.0432 L 74.0062,-67.0432 L 77.4834,-67.0432 L 78.5853,-66.2505 L 82.282,-63.591 L 82.2432,-61.9578
 L 82.049,-53.7967 L 82.0479,-53.7496 L 81.958,-48.8306 L 81.9132,-46.3764 L 81.9125,-46.3252 L 81.8701,-43.2384
 L 80.953,-43.2384 L 80.9216,-43.2232 L 79.2476,-42.4171 L 78.0893,-40.9645 L 78.0675,-40.9373 L 78.0598,-40.9033
 L 77.6463,-39.092 L 78.0598,-37.2806 L 78.0675,-37.2467 L 78.0893,-37.2194 L 79.2476,-35.7668 L 80.9216,-34.9607
 L 80.953,-34.9456 L 81.7562,-34.9456 L 81.7062,-31.3075 L 81.675,-28.1454 L 81.6215,-22.7213 L 81.621,-22.6427
 L 81.621,-22.6407 L 81.6015,-19.5866 L 81.566,-14.0161 L 81.566,-14.0161 L 80.8316,-5.4407 L 80.8241,-5.35258
 L 80.8228,-5.33723 L 80.7852,-4.47572 L 80.4466,3.3 L 80.4466,20.7 L 80.7852,28.4757 L 80.8228,29.3372
 L 80.8241,29.3526 L 80.8316,29.4407 L 81.566,38.0161 L 81.566,38.0161 L 81.6015,43.5866 L 81.6157,45.8021
 L 78.7841,48.555 L 76.7336,50.5485 L 66.8574,50.5485 L 59.5273,50.5485 L 56.3136,50.5485 L 56.2608,50.5485
 L 53.6337,50.5485 L 45.0636,50.5485 L 36.4649,50.5485 L 33.8377,50.5485 L 30.9514,50.5485 L 24.0153,50.5485
 L 13.9391,50.5485 L 13.5456,51.0835 L 13.273,51.4543 L 13.3224,52.3901 L 13.3801,53.4828 L 13.3801,53.4828
 L 13.4253,53.4828 L 17.0974,53.4828 L 15.6526,56.2024 L 13.173,60.8699 L 8.20008,60.8699 L -5.82491,60.8699
 L -9.3386,61.7239 L -15.6825,63.2659 L -15.8762,63.023 L -17.5501,62.2169 L -17.5815,62.2018 L -19.4743,62.2018
 L -19.5057,62.2169 L -21.1796,63.023 L -22.338,64.4756 L -22.3597,64.5028 L -22.3675,64.5368 L -22.7112,66.043
 L -24.4155,67.1505 L -33.8336,73.271 L -33.8336,73.271 L -34.912,74.0941 L -34.912,74.0941 L -35.4079,74.4727
 L -35.4079,74.4727 L -35.4474,74.5165 L -35.4474,74.5165 L -35.4634,74.5343 L -42.2823,82.1074 L -45.0603,85.1928
 L -45.0603,85.1928 L -44.6451,87.1199 L -44.0477,89.8924 L -49.0663,96.7999 L -49.0665,96.8002 L -51.8557,100.639
 L -54.2365,100.623 L -57.1517,100.662 L -58.9528,99.0867 L -70.485,88.9976 L -70.485,88.9976 L -70.5625,88.9297
 L -76.0186,86.2629 L -76.8307,86.0268 L -78.4537,84.6975 L -90.1608,75.1088 z
M -81.9947,43.592 L -81.1447,42.1197 L -79.4447,42.1197 L -78.5947,43.592 L -79.4447,45.0642 L -81.1447,45.0642
 z
M -74.7835,-61.6484 L -73.9335,-63.1206 L -72.2335,-63.1206 L -71.3835,-61.6484 L -72.2335,-60.1761 L -73.9335,-60.1761
 z
M -20.2279,66.3481 L -19.3779,64.8759 L -17.6779,64.8759 L -16.8279,66.3481 L -17.6779,67.8204 L -19.3779,67.8204
 z
M 5.23523,-81.9423 L 6.08523,-83.4146 L 7.78523,-83.4146 L 8.63523,-81.9423 L 7.78523,-80.4701 L 6.08523,-80.4701
 z
M 80.1994,-39.092 L 81.0494,-40.5642 L 82.7494,-40.5642 L 83.5994,-39.092 L 82.7494,-37.6197 L 81.0494,-37.6197
 z
" stroke="black" fill="lightgray" stroke-width="0.5"/>
</svg>
